<svg xmlns="http://www.w3.org/2000/svg" xmlns:xlink="http://www.w3.org/1999/xlink" viewBox="0 0 224 324" width="224" height="324" preserveAspectRatio="xMidYMid meet" style="width: 100%; height: 100%; transform: translate3d(0px, 0px, 0px); content-visibility: visible;"><defs><clipPath id="__lottie_element_2"><rect width="224" height="324" x="0" y="0"></rect></clipPath></defs><g clip-path="url(#__lottie_element_2)"><g transform="matrix(8.09000015258789,0,0,8.09000015258789,111.99874114990234,161.99887084960938)" opacity="1" style="display: block;"><g opacity="1" transform="matrix(1.3333300352096558,0,0,1.3333300352096558,0,0)"><path fill="rgb(0,0,0)" fill-opacity="1" d=" M0.007000000216066837,3.687999963760376 C1.1230000257492065,3.687999963760376 2.0260000228881836,4.581999778747559 2.0260000228881836,5.688000202178955 C2.0260000228881836,5.708000183105469 2.0190000534057617,5.7210001945495605 2.0329999923706055,5.735000133514404 C2.0329999923706055,5.735000133514404 2.0329999923706055,14.996999740600586 2.0329999923706055,14.996999740600586 C2.0329999923706055,14.996999740600586 -2.01200008392334,14.996999740600586 -2.01200008392334,14.996999740600586 C-2.01200008392334,14.996999740600586 -2.01200008392334,5.729000091552734 -2.01200008392334,5.729000091552734 C-2.01200008392334,5.715000152587891 -2.01200008392334,5.702000141143799 -2.01200008392334,5.688000202178955 C-2.01200008392334,4.581999778747559 -1.1089999675750732,3.687999963760376 0.007000000216066837,3.687999963760376z"></path></g></g><g transform="matrix(8.09000015258789,0,0,8.09000015258789,112.00154113769531,162.0012969970703)" opacity="1" style="display: block;"><g opacity="1" transform="matrix(1.3333300352096558,0,0,1.3333300352096558,0,0)"><path fill="rgb(0,0,0)" fill-opacity="1" d=" M2.9700000286102295,14.00100040435791 C2.4119999408721924,13.038999557495117 2.742000102996826,11.817000389099121 3.7070000171661377,11.263999938964844 C4.671999931335449,10.711000442504883 5.9120001792907715,11.038000106811523 6.46999979019165,11.994000434875488 C7.0279998779296875,12.956000328063965 6.704999923706055,14.178000450134277 5.732999801635742,14.730999946594238 C4.761000156402588,15.284000396728516 3.5280001163482666,14.956999778747559 2.9700000286102295,14.00100040435791z"></path></g></g><g transform="matrix(8.09000015258789,0,0,8.09000015258789,112,161.99868774414062)" opacity="1" style="display: block;"><g opacity="1" transform="matrix(1.3333300352096558,0,0,1.3333300352096558,0,0)"><path fill="rgb(0,0,0)" fill-opacity="1" d=" M0,3.0190000534057617 C-1.1160000562667847,3.0190000534057617 -2.0190000534057617,2.125 -2.0190000534057617,1.0190000534057617 C-2.0190000534057617,-0.08699999749660492 -1.1160000562667847,-0.9810000061988831 0,-0.9810000061988831 C1.1160000562667847,-0.9810000061988831 2.0190000534057617,-0.08699999749660492 2.0190000534057617,1.0190000534057617 C2.0190000534057617,2.125 1.1160000562667847,3.0190000534057617 0,3.0190000534057617z"></path></g></g><g transform="matrix(8.09000015258789,0,0,8.09000015258789,112.00151062011719,162.00384521484375)" opacity="1" style="display: block;"><g opacity="1" transform="matrix(1.3333300352096558,0,0,1.3333300352096558,0,0)"><path fill="rgb(0,0,0)" fill-opacity="1" d=" M-5.828999996185303,-0.31200000643730164 C-6.38700008392334,-1.2740000486373901 -6.057000160217285,-2.496000051498413 -5.0920000076293945,-3.0490000247955322 C-4.126999855041504,-3.6019999980926514 -2.88700008392334,-3.2799999713897705 -2.3289999961853027,-2.318000078201294 C-1.7710000276565552,-1.3559999465942383 -2.1010000705718994,-0.13500000536441803 -3.065999984741211,0.4180000126361847 C-4.038000106811523,0.9710000157356262 -5.270999908447266,0.6499999761581421 -5.828999996185303,-0.31200000643730164z"></path></g></g><g transform="matrix(8.09000015258789,0,0,8.09000015258789,112,161.999755859375)" opacity="1" style="display: block;"><g opacity="1" transform="matrix(1.3333300352096558,0,0,1.3333300352096558,0,0)"><path fill="rgb(0,0,0)" fill-opacity="1" d=" M0,-1.656000018119812 C-1.1160000562667847,-1.656000018119812 -2.0190000534057617,-2.549999952316284 -2.0190000534057617,-3.6559998989105225 C-2.0190000534057617,-4.76200008392334 -1.1160000562667847,-5.656000137329102 0,-5.656000137329102 C1.1160000562667847,-5.656000137329102 2.0190000534057617,-4.76200008392334 2.0190000534057617,-3.6559998989105225 C2.0190000534057617,-2.549999952316284 1.1160000562667847,-1.656000018119812 0,-1.656000018119812z"></path></g></g><g transform="matrix(8.09000015258789,0,0,8.09000015258789,112.00141906738281,162.00160217285156)" opacity="1" style="display: block;"><g opacity="1" transform="matrix(1.3333300352096558,0,0,1.3333300352096558,0,0)"><path fill="rgb(0,0,0)" fill-opacity="1" d=" M-5.828999996185303,4.35699987411499 C-6.38700008392334,3.3949999809265137 -6.057000160217285,2.1730000972747803 -5.0920000076293945,1.6200000047683716 C-4.126999855041504,1.0670000314712524 -2.88700008392334,1.3880000114440918 -2.3289999961853027,2.3499999046325684 C-1.7710000276565552,3.312000036239624 -2.0940001010894775,4.533999919891357 -3.065999984741211,5.086999893188477 C-4.038000106811523,5.639999866485596 -5.270999908447266,5.318999767303467 -5.828999996185303,4.35699987411499z"></path></g></g><g transform="matrix(8.09000015258789,0,0,8.09000015258789,111.99958801269531,162.00160217285156)" opacity="1" style="display: block;"><g opacity="1" transform="matrix(1.3333300352096558,0,0,1.3333300352096558,0,0)"><path fill="rgb(0,0,0)" fill-opacity="1" d=" M2.3359999656677246,4.35699987411499 C1.777999997138977,3.3949999809265137 2.1080000400543213,2.1730000972747803 3.072999954223633,1.6200000047683716 C4.045000076293945,1.0670000314712524 5.2779998779296875,1.3940000534057617 5.835999965667725,2.3499999046325684 C6.394000053405762,3.312000036239624 6.071000099182129,4.533999919891357 5.098999977111816,5.086999893188477 C4.126999855041504,5.639999866485596 2.8940000534057617,5.313000202178955 2.3359999656677246,4.35699987411499z"></path></g></g><g transform="matrix(8.09000015258789,0,0,8.09000015258789,112.0018310546875,161.999755859375)" opacity="1" style="display: block;"><g opacity="1" transform="matrix(1.3333300352096558,0,0,1.3333300352096558,0,0)"><path fill="rgb(0,0,0)" fill-opacity="1" d=" M-9.914999961853027,-2.6530001163482666 C-10.472999572753906,-3.615000009536743 -10.142999649047852,-4.836999893188477 -9.178000450134277,-5.389999866485596 C-8.213000297546387,-5.942999839782715 -6.9730000495910645,-5.622000217437744 -6.414999961853027,-4.659999847412109 C-5.85699987411499,-3.697999954223633 -6.186999797821045,-2.4760000705718994 -7.1519999504089355,-1.9229999780654907 C-8.12399959564209,-1.3700000047683716 -9.357000350952148,-1.690999984741211 -9.914999961853027,-2.6530001163482666z"></path></g></g><g transform="matrix(8.09000015258789,0,0,8.09000015258789,112.00151062011719,161.996826171875)" opacity="1" style="display: block;"><g opacity="1" transform="matrix(1.3333300352096558,0,0,1.3333300352096558,0,0)"><path fill="rgb(0,0,0)" fill-opacity="1" d=" M-5.828999996185303,-4.986999988555908 C-6.38700008392334,-5.948999881744385 -6.057000160217285,-7.171000003814697 -5.0920000076293945,-7.723999977111816 C-4.126999855041504,-8.277000427246094 -2.8940000534057617,-7.949999809265137 -2.3289999961853027,-6.99399995803833 C-1.7710000276565552,-6.0320000648498535 -2.1010000705718994,-4.809999942779541 -3.065999984741211,-4.256999969482422 C-4.038000106811523,-3.7039999961853027 -5.270999908447266,-4.031000137329102 -5.828999996185303,-4.986999988555908z"></path></g></g><g transform="matrix(8.09000015258789,0,0,8.09000015258789,112.00173950195312,161.998779296875)" opacity="1" style="display: block;"><g opacity="1" transform="matrix(1.3333300352096558,0,0,1.3333300352096558,0,0)"><path fill="rgb(0,0,0)" fill-opacity="1" d=" M-9.914999961853027,2.0220000743865967 C-10.472999572753906,1.059999942779541 -10.142999649047852,-0.16200000047683716 -9.178000450134277,-0.7149999737739563 C-8.213000297546387,-1.2680000066757202 -6.9730000495910645,-0.9459999799728394 -6.414999961853027,0.01600000075995922 C-5.85699987411499,0.9779999852180481 -6.179999828338623,2.200000047683716 -7.1519999504089355,2.753000020980835 C-8.12399959564209,3.305999994277954 -9.357000350952148,2.9779999256134033 -9.914999961853027,2.0220000743865967z"></path></g></g><g transform="matrix(8.09000015258789,0,0,8.09000015258789,111.99967956542969,161.996826171875)" opacity="1" style="display: block;"><g opacity="1" transform="matrix(1.3333300352096558,0,0,1.3333300352096558,0,0)"><path fill="rgb(0,0,0)" fill-opacity="1" d=" M2.3359999656677246,-4.986999988555908 C1.777999997138977,-5.948999881744385 2.1080000400543213,-7.171000003814697 3.072999954223633,-7.723999977111816 C4.045000076293945,-8.277000427246094 5.2779998779296875,-7.949999809265137 5.835999965667725,-6.99399995803833 C6.394000053405762,-6.0320000648498535 6.064000129699707,-4.809999942779541 5.098999977111816,-4.256999969482422 C4.126999855041504,-3.7039999961853027 2.8940000534057617,-4.031000137329102 2.3359999656677246,-4.986999988555908z"></path></g></g><g transform="matrix(8.09000015258789,0,0,8.09000015258789,111.99935150146484,161.9998321533203)" opacity="1" style="display: block;"><g opacity="1" transform="matrix(1.3333300352096558,0,0,1.3333300352096558,0,0)"><path fill="rgb(0,0,0)" fill-opacity="1" d=" M6.421999931335449,-2.6530001163482666 C5.863999843597412,-3.615000009536743 6.193999767303467,-4.836999893188477 7.158999919891357,-5.389999866485596 C8.12399959564209,-5.942999839782715 9.36400032043457,-5.622000217437744 9.92199993133545,-4.659999847412109 C10.479999542236328,-3.697999954223633 10.149999618530273,-2.4760000705718994 9.1850004196167,-1.9229999780654907 C8.213000297546387,-1.3700000047683716 6.980000019073486,-1.6970000267028809 6.421999931335449,-2.6530001163482666z"></path></g></g><g transform="matrix(8.09000015258789,0,0,8.09000015258789,111.99935150146484,161.998779296875)" opacity="1" style="display: block;"><g opacity="1" transform="matrix(1.3333300352096558,0,0,1.3333300352096558,0,0)"><path fill="rgb(0,0,0)" fill-opacity="1" d=" M6.421999931335449,2.0220000743865967 C5.863999843597412,1.059999942779541 6.193999767303467,-0.16200000047683716 7.158999919891357,-0.7149999737739563 C8.12399959564209,-1.2680000066757202 9.36400032043457,-0.9459999799728394 9.92199993133545,0.01600000075995922 C10.479999542236328,0.9779999852180481 10.149999618530273,2.200000047683716 9.1850004196167,2.753000020980835 C8.213000297546387,3.305999994277954 6.980000019073486,2.9779999256134033 6.421999931335449,2.0220000743865967z"></path></g></g><g transform="matrix(8.09000015258789,0,0,8.09000015258789,112,162.0019989013672)" opacity="1" style="display: block;"><g opacity="1" transform="matrix(1.3333300352096558,0,0,1.3333300352096558,0,0)"><path fill="rgb(0,0,0)" fill-opacity="1" d=" M0,-6.324999809265137 C-1.1160000562667847,-6.324999809265137 -2.0190000534057617,-7.218999862670898 -2.0190000534057617,-8.324999809265137 C-2.0190000534057617,-9.430999755859375 -1.1160000562667847,-10.324999809265137 0,-10.324999809265137 C1.1160000562667847,-10.324999809265137 2.0190000534057617,-9.430999755859375 2.0190000534057617,-8.324999809265137 C2.0190000534057617,-7.218999862670898 1.1160000562667847,-6.324999809265137 0,-6.324999809265137z"></path></g></g><g transform="matrix(8.09000015258789,0,0,8.09000015258789,112.00032043457031,161.99908447265625)" opacity="1" style="display: block;"><g opacity="1" transform="matrix(1.3333300352096558,0,0,1.3333300352096558,0,0)"><path fill="rgb(0,0,0)" fill-opacity="1" d=" M-5.098999977111816,-8.925000190734863 C-6.064000129699707,-9.477999687194824 -6.394000053405762,-10.706000328063965 -5.835999965667725,-11.661999702453613 C-5.2779998779296875,-12.618000030517578 -4.038000106811523,-12.946000099182129 -3.072999954223633,-12.392999649047852 C-2.1080000400543213,-11.84000015258789 -1.777999997138977,-10.612000465393066 -2.3359999656677246,-9.656000137329102 C-2.8940000534057617,-8.699999809265137 -4.133999824523926,-8.371999740600586 -5.098999977111816,-8.925000190734863z"></path></g></g><g transform="matrix(8.09000015258789,0,0,8.09000015258789,112.00064086914062,162.0019989013672)" opacity="1" style="display: block;"><g opacity="1" transform="matrix(1.3333300352096558,0,0,1.3333300352096558,0,0)"><path fill="rgb(0,0,0)" fill-opacity="1" d=" M-9.1850004196167,-6.591000080108643 C-10.149999618530273,-7.144000053405762 -10.479999542236328,-8.371999740600586 -9.92199993133545,-9.32800006866455 C-9.36400032043457,-10.284000396728516 -8.12399959564209,-10.611000061035156 -7.158999919891357,-10.057999610900879 C-6.193999767303467,-9.505000114440918 -5.863999843597412,-8.277000427246094 -6.421999931335449,-7.321000099182129 C-6.980000019073486,-6.364999771118164 -8.220000267028809,-6.038000106811523 -9.1850004196167,-6.591000080108643z"></path></g></g><g transform="matrix(8.09000015258789,0,0,8.09000015258789,111.99958801269531,161.99908447265625)" opacity="1" style="display: block;"><g opacity="1" transform="matrix(1.3333300352096558,0,0,1.3333300352096558,0,0)"><path fill="rgb(0,0,0)" fill-opacity="1" d=" M2.3359999656677246,-9.656000137329102 C1.777999997138977,-10.618000030517578 2.1080000400543213,-11.84000015258789 3.072999954223633,-12.392999649047852 C4.045000076293945,-12.946000099182129 5.2779998779296875,-12.618000030517578 5.835999965667725,-11.661999702453613 C6.394000053405762,-10.699999809265137 6.071000099182129,-9.477999687194824 5.098999977111816,-8.925000190734863 C4.126999855041504,-8.371999740600586 2.8940000534057617,-8.699999809265137 2.3359999656677246,-9.656000137329102z"></path></g></g><g transform="matrix(8.09000015258789,0,0,8.09000015258789,111.99935150146484,162.00209045410156)" opacity="1" style="display: block;"><g opacity="1" transform="matrix(1.3333300352096558,0,0,1.3333300352096558,0,0)"><path fill="rgb(0,0,0)" fill-opacity="1" d=" M6.421999931335449,-7.321000099182129 C5.863999843597412,-8.282999992370605 6.193999767303467,-9.505000114440918 7.158999919891357,-10.057999610900879 C8.12399959564209,-10.611000061035156 9.36400032043457,-10.289999961853027 9.92199993133545,-9.32800006866455 C10.479999542236328,-8.366000175476074 10.149999618530273,-7.144000053405762 9.1850004196167,-6.591000080108643 C8.213000297546387,-6.038000106811523 6.980000019073486,-6.364999771118164 6.421999931335449,-7.321000099182129z"></path></g></g><g transform="matrix(8.09000015258789,0,0,8.09000015258789,112,162.00405883789062)" opacity="1" style="display: block;"><g opacity="1" transform="matrix(1.3333300352096558,0,0,1.3333300352096558,0,0)"><path fill="rgb(0,0,0)" fill-opacity="1" d=" M2.0190000534057617,-13 C2.0190000534057617,-14.105999946594238 1.1160000562667847,-15 0,-15 C-1.1160000562667847,-15 -2.0190000534057617,-14.105999946594238 -2.0190000534057617,-13 C-2.0190000534057617,-11.894000053405762 -1.1160000562667847,-11 0,-11 C1.1160000562667847,-11 2.0190000534057617,-11.894000053405762 2.0190000534057617,-13z"></path></g></g><g transform="matrix(1,0,0,1,112,162)" opacity="1" style="display: block;"></g></g></svg>